<svg xmlns="http://www.w3.org/2000/svg" xmlns:xlink="http://www.w3.org/1999/xlink" width="500" zoomAndPan="magnify" viewBox="0 0 375 374.999991" height="500" preserveAspectRatio="xMidYMid meet" version="1.0"><defs><clipPath id="e675ef5057"><path d="M 210.347656 22.304688 L 353.988281 22.304688 L 353.988281 156.484375 L 210.347656 156.484375 Z M 210.347656 22.304688 " clip-rule="nonzero"/></clipPath><clipPath id="3cef5ec57a"><path d="M 24 115 L 298.871094 115 L 298.871094 353.734375 L 24 353.734375 Z M 24 115 " clip-rule="nonzero"/></clipPath><clipPath id="51c7f5e499"><path d="M 56 226 L 199.453125 226 L 199.453125 353.734375 L 56 353.734375 Z M 56 226 " clip-rule="nonzero"/></clipPath></defs><g clip-path="url(#e675ef5057)"><path fill="#b4e7f6" d="M 259.765625 75.511719 C 260.851562 75.554688 261.898438 75.625 262.996094 75.660156 C 262.996094 75.660156 179.589844 53.375 222.867188 39.617188 C 229.71875 38.03125 237.253906 35.828125 245.125 32.742188 C 279.378906 19.335938 325.171875 10.773438 344.53125 59.554688 C 353.75 82.792969 356.453125 117.609375 351.65625 156.066406 C 341.132812 127.6875 315.914062 96.691406 259.765625 75.511719 " fill-opacity="1" fill-rule="nonzero"/></g><path fill="#81d7f7" d="M 159.6875 120.066406 C 112.589844 110.738281 62.5 112.90625 24.234375 145.003906 C 21.210938 110.976562 24.214844 80.542969 32.546875 59.554688 C 42.734375 33.878906 60.25 24.089844 79.546875 22.539062 C 92.640625 21.480469 104.445312 24.09375 116.078125 29.8125 C 128.351562 35.851562 140.269531 42.585938 152.367188 48.960938 C 174.277344 60.519531 209.566406 73.414062 259.765625 75.511719 C 315.914062 96.691406 341.132812 127.6875 351.65625 156.066406 C 346.390625 198.347656 332.0625 245.03125 307.300781 285.59375 C 304.390625 290.359375 301.558594 294.796875 298.816406 298.925781 C 295.589844 280.941406 286.984375 241.535156 268.65625 206.050781 C 255.929688 181.410156 216.085938 131.238281 159.6875 120.066406 " fill-opacity="1" fill-rule="nonzero"/><g clip-path="url(#3cef5ec57a)"><path fill="#60ccf5" d="M 159.6875 120.066406 C 216.085938 131.238281 255.929688 181.410156 268.65625 206.050781 C 286.984375 241.535156 295.589844 280.941406 298.816406 298.925781 C 256.957031 361.890625 234.332031 353.371094 234.332031 353.371094 C 234.332031 353.371094 220.554688 348.898438 211.246094 322.457031 C 205.519531 306.1875 203.316406 289.925781 199.34375 279.820312 C 199.34375 279.820312 178.113281 214.46875 107.75 227.875 C 80.417969 233.082031 65.003906 246.464844 56.324219 260.886719 C 37.898438 222.980469 27.511719 181.886719 24.234375 145.003906 C 62.5 112.90625 112.589844 110.738281 159.6875 120.066406 " fill-opacity="1" fill-rule="nonzero"/></g><g clip-path="url(#51c7f5e499)"><path fill="#51ade5" d="M 107.75 227.875 C 178.113281 214.46875 199.34375 279.820312 199.34375 279.820312 C 196.863281 273.503906 193.691406 269.582031 188.539062 269.582031 C 175.136719 269.582031 175.136719 296.023438 165.828125 322.457031 C 156.519531 348.898438 142.746094 353.371094 142.746094 353.371094 C 142.746094 353.371094 117.054688 363.050781 69.777344 285.59375 C 64.882812 277.570312 60.417969 269.304688 56.324219 260.886719 C 65.003906 246.464844 80.417969 233.082031 107.75 227.875 " fill-opacity="1" fill-rule="nonzero"/></g></svg>