<svg xmlns="http://www.w3.org/2000/svg" xmlns:xlink="http://www.w3.org/1999/xlink" width="500" zoomAndPan="magnify" viewBox="0 0 375 374.999991" height="500" preserveAspectRatio="xMidYMid meet" version="1.0"><defs><clipPath id="cfce708e7b"><path d="M 132.394531 114.867188 L 242.644531 114.867188 L 242.644531 228 L 132.394531 228 Z M 132.394531 114.867188 " clip-rule="nonzero"/></clipPath></defs><path fill="#f7f8f9" d="M 211.429688 116.277344 C 207.011719 116.398438 202.695312 117.121094 198.480469 118.445312 C 194.265625 119.773438 190.3125 121.648438 186.617188 124.078125 L 185.914062 124.53125 L 185.183594 124.164062 C 177.476562 120.050781 169.203125 116.277344 160.792969 116.277344 C 144.054688 116.277344 134.070312 127.347656 134.070312 145.855469 C 134.070312 157.351562 138.683594 166.027344 143.15625 174.421875 C 146.847656 180.503906 149.457031 187.019531 150.976562 193.972656 C 151.886719 199.609375 153.585938 205 156.066406 210.144531 C 157.875 213.804688 159.9375 217.316406 162.257812 220.679688 C 163.042969 221.863281 163.71875 222.847656 164.253906 223.777344 C 164.710938 224.511719 165.316406 225.089844 166.070312 225.511719 C 166.828125 225.933594 167.636719 226.144531 168.5 226.144531 C 168.828125 226.144531 169.148438 226.113281 169.46875 226.046875 C 169.785156 225.984375 170.09375 225.890625 170.394531 225.765625 C 170.695312 225.640625 170.980469 225.488281 171.25 225.308594 C 171.519531 225.125 171.769531 224.921875 172 224.691406 C 172.230469 224.460938 172.433594 224.210938 172.617188 223.9375 C 172.796875 223.667969 172.949219 223.382812 173.074219 223.082031 C 173.199219 222.78125 173.292969 222.472656 173.355469 222.152344 C 173.417969 221.835938 173.453125 221.511719 173.453125 221.1875 L 173.453125 202.199219 C 173.453125 201.367188 173.535156 200.542969 173.695312 199.726562 C 173.859375 198.910156 174.097656 198.117188 174.417969 197.347656 C 174.734375 196.578125 175.125 195.847656 175.585938 195.15625 C 176.046875 194.464844 176.574219 193.824219 177.160156 193.234375 C 177.746094 192.644531 178.386719 192.121094 179.078125 191.660156 C 179.769531 191.195312 180.5 190.804688 181.265625 190.488281 C 182.035156 190.167969 182.828125 189.929688 183.640625 189.765625 C 184.457031 189.601562 185.28125 189.523438 186.113281 189.523438 C 186.941406 189.523438 187.765625 189.601562 188.582031 189.765625 C 189.394531 189.929688 190.1875 190.167969 190.957031 190.488281 C 191.722656 190.804688 192.453125 191.195312 193.144531 191.660156 C 193.835938 192.121094 194.476562 192.644531 195.0625 193.234375 C 195.652344 193.824219 196.175781 194.464844 196.636719 195.15625 C 197.097656 195.847656 197.488281 196.578125 197.808594 197.347656 C 198.125 198.117188 198.363281 198.910156 198.527344 199.726562 C 198.691406 200.542969 198.769531 201.367188 198.769531 202.199219 L 198.769531 221.1875 C 198.769531 221.511719 198.804688 221.835938 198.867188 222.152344 C 198.929688 222.472656 199.023438 222.78125 199.148438 223.082031 C 199.273438 223.382812 199.425781 223.667969 199.609375 223.9375 C 199.789062 224.210938 199.992188 224.460938 200.222656 224.691406 C 200.453125 224.921875 200.703125 225.125 200.972656 225.308594 C 201.242188 225.488281 201.527344 225.640625 201.828125 225.765625 C 202.128906 225.890625 202.4375 225.984375 202.757812 226.046875 C 203.074219 226.113281 203.398438 226.144531 203.722656 226.144531 C 204.585938 226.144531 205.394531 225.933594 206.152344 225.511719 C 206.90625 225.089844 207.511719 224.511719 207.96875 223.777344 C 208.503906 222.847656 209.179688 221.863281 209.882812 220.792969 C 212.777344 216.816406 215.183594 212.566406 217.101562 208.035156 C 219.019531 203.507812 220.402344 198.820312 221.246094 193.972656 C 222.769531 187.019531 225.375 180.503906 229.066406 174.421875 C 233.539062 166.027344 238.152344 157.351562 238.152344 145.855469 C 238.152344 127.347656 228.167969 116.277344 211.429688 116.277344 Z M 211.429688 116.277344 " fill-opacity="1" fill-rule="nonzero"/><path fill="#e6e7ec" d="M 238.152344 145.855469 C 238.152344 157.351562 233.539062 166.027344 229.066406 174.421875 C 225.375 180.503906 222.769531 187.019531 221.246094 193.972656 C 220.402344 198.820312 219.019531 203.507812 217.101562 208.035156 C 215.183594 212.566406 212.777344 216.816406 209.882812 220.792969 C 209.179688 221.863281 208.503906 222.847656 207.96875 223.777344 C 207.511719 224.511719 206.90625 225.089844 206.152344 225.511719 C 205.394531 225.933594 204.585938 226.144531 203.722656 226.144531 C 203.398438 226.144531 203.074219 226.113281 202.757812 226.046875 C 202.4375 225.984375 202.128906 225.890625 201.828125 225.765625 C 201.527344 225.640625 201.242188 225.488281 200.972656 225.308594 C 200.703125 225.125 200.453125 224.921875 200.222656 224.691406 C 199.992188 224.460938 199.789062 224.210938 199.609375 223.9375 C 199.425781 223.667969 199.273438 223.382812 199.148438 223.082031 C 199.023438 222.78125 198.929688 222.472656 198.867188 222.152344 C 198.804688 221.835938 198.769531 221.511719 198.769531 221.1875 L 198.769531 202.199219 C 198.769531 201.367188 198.691406 200.542969 198.527344 199.726562 C 198.363281 198.910156 198.125 198.117188 197.808594 197.347656 C 197.488281 196.578125 197.097656 195.847656 196.636719 195.15625 C 196.175781 194.464844 195.652344 193.824219 195.0625 193.234375 C 194.476562 192.644531 193.835938 192.121094 193.144531 191.660156 C 192.453125 191.195312 191.722656 190.804688 190.957031 190.488281 C 190.1875 190.167969 189.394531 189.929688 188.582031 189.765625 C 187.765625 189.601562 186.941406 189.523438 186.113281 189.523438 C 185.28125 189.523438 184.457031 189.601562 183.640625 189.765625 C 182.828125 189.929688 182.035156 190.167969 181.265625 190.488281 C 180.5 190.804688 179.769531 191.195312 179.078125 191.660156 C 178.386719 192.121094 177.746094 192.644531 177.160156 193.234375 C 176.574219 193.824219 176.046875 194.464844 175.585938 195.15625 C 175.125 195.847656 174.734375 196.578125 174.417969 197.347656 C 174.097656 198.117188 173.859375 198.910156 173.695312 199.726562 C 173.535156 200.542969 173.453125 201.367188 173.453125 202.199219 L 173.453125 221.1875 C 173.453125 221.511719 173.417969 221.835938 173.355469 222.152344 C 173.292969 222.472656 173.199219 222.78125 173.074219 223.082031 C 172.949219 223.382812 172.796875 223.667969 172.617188 223.9375 C 172.433594 224.210938 172.230469 224.460938 172 224.691406 C 171.769531 224.921875 171.519531 225.125 171.25 225.308594 C 170.980469 225.488281 170.695312 225.640625 170.394531 225.765625 C 170.09375 225.890625 169.785156 225.984375 169.46875 226.046875 C 169.148438 226.113281 168.828125 226.144531 168.5 226.144531 C 167.636719 226.144531 166.828125 225.933594 166.070312 225.511719 C 165.316406 225.089844 164.710938 224.511719 164.253906 223.777344 C 163.71875 222.847656 163.042969 221.863281 162.257812 220.679688 C 159.9375 217.316406 157.875 213.804688 156.066406 210.144531 C 153.585938 205 151.886719 199.609375 150.976562 193.972656 C 149.457031 187.019531 146.847656 180.503906 143.15625 174.421875 C 138.683594 166.027344 134.070312 157.351562 134.070312 145.855469 C 134.039062 142.535156 134.40625 139.257812 135.167969 136.023438 L 142.480469 129.289062 C 142.480469 129.289062 139.078125 142.644531 141.550781 151.488281 C 145.152344 164.335938 151.847656 180.183594 165.183594 180.945312 C 167.058594 181.121094 168.929688 181.113281 170.804688 180.917969 C 172.675781 180.722656 174.511719 180.339844 176.308594 179.777344 C 178.105469 179.214844 179.832031 178.476562 181.480469 177.566406 C 183.128906 176.65625 184.675781 175.59375 186.113281 174.375 C 186.113281 174.375 193.875 183.480469 208.785156 179.84375 C 217.730469 177.648438 226.84375 164.644531 229.828125 154.054688 C 233.289062 141.855469 234.304688 125.777344 220.230469 123 C 207.636719 120.511719 197.808594 131.84375 197.808594 131.84375 L 185.914062 124.53125 L 186.617188 124.078125 C 190.3125 121.648438 194.265625 119.773438 198.480469 118.445312 C 202.695312 117.121094 207.011719 116.398438 211.429688 116.277344 C 228.167969 116.277344 238.152344 127.347656 238.152344 145.855469 Z M 238.152344 145.855469 " fill-opacity="1" fill-rule="nonzero"/><path fill="#b4e7f6" d="M 239.390625 151.238281 L 239.390625 170.757812 C 239.390625 184.816406 219.867188 190.253906 219.867188 190.253906 C 219.867188 190.253906 200.347656 184.816406 200.347656 170.757812 L 200.347656 151.238281 Z M 239.390625 151.238281 " fill-opacity="1" fill-rule="nonzero"/><path fill="#4fc1d4" d="M 225.878906 187.238281 C 224.015625 188.527344 222.011719 189.53125 219.867188 190.253906 C 219.867188 190.253906 200.347656 184.816406 200.347656 170.757812 L 200.347656 151.238281 L 207.125 151.238281 L 207.125 170.394531 C 207.125 177.367188 225.878906 187.238281 225.878906 187.238281 Z M 225.878906 187.238281 " fill-opacity="1" fill-rule="nonzero"/><g clip-path="url(#cfce708e7b)"><path fill="#004aad" d="M 239.5625 148.671875 L 239.46875 148.671875 C 239.53125 147.734375 239.5625 146.792969 239.5625 145.855469 C 239.5625 126.453125 229.046875 114.867188 211.429688 114.867188 C 206.875 114.992188 202.421875 115.738281 198.070312 117.105469 C 193.722656 118.472656 189.640625 120.40625 185.832031 122.90625 C 178.453125 118.984375 169.738281 114.867188 160.792969 114.867188 C 143.179688 114.867188 132.664062 126.453125 132.664062 145.855469 C 132.664062 157.714844 137.367188 166.546875 141.914062 175.082031 C 145.527344 181.035156 148.082031 187.410156 149.582031 194.210938 C 150.4375 199.132812 151.839844 203.894531 153.78125 208.492188 C 155.726562 213.09375 158.160156 217.414062 161.089844 221.457031 C 161.824219 222.5625 162.496094 223.566406 163.058594 224.503906 C 163.417969 225.097656 163.867188 225.617188 164.398438 226.066406 C 164.929688 226.515625 165.519531 226.867188 166.164062 227.121094 C 166.8125 227.378906 167.480469 227.523438 168.175781 227.558594 C 168.871094 227.59375 169.550781 227.515625 170.21875 227.328125 C 170.890625 227.136719 171.511719 226.847656 172.085938 226.457031 C 172.660156 226.0625 173.15625 225.589844 173.574219 225.035156 C 173.992188 224.476562 174.3125 223.871094 174.53125 223.210938 C 174.753906 222.550781 174.859375 221.871094 174.859375 221.175781 L 174.859375 202.199219 C 174.859375 201.460938 174.929688 200.726562 175.074219 200 C 175.21875 199.273438 175.433594 198.570312 175.714844 197.886719 C 176 197.203125 176.34375 196.554688 176.753906 195.9375 C 177.164062 195.324219 177.632812 194.753906 178.15625 194.230469 C 178.675781 193.707031 179.246094 193.242188 179.859375 192.828125 C 180.472656 192.417969 181.121094 192.070312 181.804688 191.789062 C 182.488281 191.503906 183.191406 191.292969 183.917969 191.148438 C 184.640625 191.003906 185.371094 190.929688 186.113281 190.929688 C 186.851562 190.929688 187.582031 191.003906 188.308594 191.148438 C 189.03125 191.292969 189.734375 191.503906 190.417969 191.789062 C 191.101562 192.070312 191.75 192.417969 192.363281 192.828125 C 192.976562 193.242188 193.546875 193.707031 194.066406 194.230469 C 194.589844 194.753906 195.058594 195.324219 195.46875 195.9375 C 195.878906 196.554688 196.226562 197.203125 196.507812 197.886719 C 196.789062 198.570312 197.003906 199.273438 197.148438 200 C 197.292969 200.726562 197.363281 201.460938 197.363281 202.199219 L 197.363281 221.175781 C 197.363281 221.59375 197.40625 222.007812 197.488281 222.417969 C 197.570312 222.828125 197.691406 223.226562 197.851562 223.613281 C 198.011719 224 198.207031 224.367188 198.441406 224.71875 C 198.671875 225.066406 198.9375 225.386719 199.230469 225.683594 C 199.527344 225.980469 199.847656 226.242188 200.195312 226.476562 C 200.542969 226.707031 200.910156 226.90625 201.296875 227.066406 C 201.683594 227.226562 202.082031 227.347656 202.492188 227.429688 C 202.902344 227.511719 203.316406 227.554688 203.734375 227.554688 C 204.277344 227.554688 204.816406 227.488281 205.34375 227.351562 C 205.871094 227.214844 206.371094 227.011719 206.847656 226.742188 C 207.324219 226.476562 207.757812 226.152344 208.148438 225.773438 C 208.539062 225.390625 208.878906 224.96875 209.160156 224.5 C 209.722656 223.566406 210.398438 222.5625 211.128906 221.457031 C 214.058594 217.414062 216.492188 213.089844 218.4375 208.492188 C 220.378906 203.890625 221.777344 199.128906 222.636719 194.210938 C 222.722656 193.714844 222.8125 193.230469 222.917969 192.75 C 222.917969 192.707031 222.917969 192.664062 222.917969 192.621094 C 228.359375 189.976562 242.375 182.117188 242.375 171.210938 L 242.375 151.488281 C 242.375 151.117188 242.300781 150.757812 242.160156 150.410156 C 242.015625 150.066406 241.8125 149.761719 241.550781 149.5 C 241.285156 149.234375 240.980469 149.03125 240.636719 148.886719 C 240.292969 148.746094 239.933594 148.671875 239.5625 148.671875 Z M 217.09375 193.28125 C 216.304688 197.8125 215.011719 202.191406 213.214844 206.421875 C 211.417969 210.652344 209.160156 214.621094 206.449219 218.332031 C 205.671875 219.507812 204.957031 220.585938 204.359375 221.566406 C 204.148438 221.84375 203.875 221.9375 203.539062 221.839844 C 203.203125 221.746094 203.023438 221.523438 202.992188 221.175781 L 202.992188 202.199219 C 202.992188 201.644531 202.964844 201.09375 202.910156 200.542969 C 202.855469 199.992188 202.773438 199.445312 202.664062 198.902344 C 202.558594 198.359375 202.425781 197.820312 202.261719 197.292969 C 202.101562 196.761719 201.917969 196.242188 201.707031 195.730469 C 201.492188 195.21875 201.257812 194.71875 200.996094 194.230469 C 200.738281 193.742188 200.453125 193.269531 200.144531 192.808594 C 199.839844 192.347656 199.507812 191.902344 199.160156 191.476562 C 198.808594 191.046875 198.4375 190.636719 198.046875 190.246094 C 197.65625 189.855469 197.246094 189.484375 196.820312 189.132812 C 196.390625 188.78125 195.949219 188.453125 195.488281 188.144531 C 195.027344 187.835938 194.554688 187.554688 194.066406 187.292969 C 193.582031 187.03125 193.082031 186.792969 192.570312 186.582031 C 192.058594 186.371094 191.539062 186.183594 191.011719 186.023438 C 190.480469 185.863281 189.945312 185.730469 189.40625 185.621094 C 188.863281 185.511719 188.316406 185.433594 187.765625 185.378906 C 187.214844 185.324219 186.664062 185.296875 186.113281 185.296875 C 185.558594 185.296875 185.007812 185.324219 184.457031 185.378906 C 183.90625 185.433594 183.359375 185.511719 182.820312 185.621094 C 182.277344 185.730469 181.742188 185.863281 181.210938 186.023438 C 180.683594 186.183594 180.164062 186.371094 179.652344 186.582031 C 179.140625 186.792969 178.640625 187.03125 178.15625 187.292969 C 177.667969 187.554688 177.195312 187.835938 176.734375 188.144531 C 176.273438 188.453125 175.832031 188.78125 175.402344 189.132812 C 174.976562 189.484375 174.566406 189.855469 174.175781 190.246094 C 173.785156 190.636719 173.414062 191.046875 173.0625 191.476562 C 172.714844 191.902344 172.382812 192.347656 172.078125 192.808594 C 171.769531 193.269531 171.488281 193.742188 171.226562 194.230469 C 170.964844 194.71875 170.730469 195.21875 170.519531 195.730469 C 170.304688 196.242188 170.121094 196.761719 169.960938 197.292969 C 169.800781 197.820312 169.664062 198.359375 169.558594 198.902344 C 169.449219 199.445312 169.367188 199.992188 169.3125 200.542969 C 169.261719 201.09375 169.234375 201.644531 169.234375 202.199219 L 169.234375 221.175781 C 169.199219 221.519531 169.015625 221.742188 168.683594 221.835938 C 168.351562 221.933594 168.078125 221.84375 167.867188 221.566406 C 167.265625 220.578125 166.550781 219.507812 165.773438 218.332031 C 163.0625 214.621094 160.804688 210.652344 159.007812 206.421875 C 157.210938 202.191406 155.917969 197.8125 155.128906 193.28125 C 153.539062 185.871094 150.789062 178.921875 146.878906 172.4375 C 142.460938 164.140625 138.289062 156.308594 138.289062 145.855469 C 138.289062 129.742188 146.492188 120.5 160.792969 120.5 C 169.585938 120.5 178.820312 125.5 186.234375 129.515625 C 189.515625 131.433594 192.929688 133.078125 196.476562 134.445312 C 196.828125 134.5625 197.191406 134.605469 197.566406 134.582031 C 197.9375 134.554688 198.292969 134.457031 198.625 134.289062 C 198.960938 134.121094 199.25 133.898438 199.492188 133.613281 C 199.738281 133.332031 199.917969 133.011719 200.035156 132.65625 C 200.15625 132.300781 200.199219 131.9375 200.171875 131.566406 C 200.148438 131.191406 200.050781 130.839844 199.882812 130.503906 C 199.714844 130.167969 199.492188 129.878906 199.207031 129.636719 C 198.925781 129.390625 198.605469 129.207031 198.253906 129.089844 C 195.964844 128.238281 193.757812 127.214844 191.628906 126.015625 C 194.652344 124.296875 197.839844 122.972656 201.191406 122.042969 C 204.539062 121.109375 207.953125 120.59375 211.429688 120.5 C 225.730469 120.5 233.933594 129.742188 233.933594 145.855469 C 233.933594 146.796875 233.890625 147.738281 233.820312 148.671875 L 200.175781 148.671875 C 199.804688 148.671875 199.445312 148.746094 199.101562 148.886719 C 198.757812 149.03125 198.453125 149.234375 198.1875 149.5 C 197.925781 149.761719 197.722656 150.066406 197.578125 150.410156 C 197.433594 150.757812 197.363281 151.117188 197.363281 151.488281 L 197.363281 171.210938 C 197.363281 182.355469 212.019531 190.335938 217.183594 192.800781 C 217.15625 192.960938 217.121094 193.121094 217.09375 193.28125 Z M 236.746094 171.210938 C 236.746094 178.390625 225.445312 185.207031 219.867188 187.832031 C 214.289062 185.207031 202.992188 178.402344 202.992188 171.210938 L 202.992188 154.308594 L 236.746094 154.308594 Z M 236.746094 171.210938 " fill-opacity="1" fill-rule="nonzero"/></g><path fill="#004aad" d="M 212.835938 172.617188 L 217.054688 172.617188 L 217.054688 176.84375 C 217.054688 177.21875 217.128906 177.578125 217.269531 177.921875 C 217.414062 178.269531 217.617188 178.574219 217.878906 178.835938 C 218.144531 179.101562 218.449219 179.304688 218.792969 179.449219 C 219.136719 179.589844 219.496094 179.660156 219.867188 179.660156 C 220.242188 179.660156 220.601562 179.589844 220.945312 179.449219 C 221.289062 179.304688 221.59375 179.101562 221.859375 178.835938 C 222.121094 178.574219 222.324219 178.269531 222.46875 177.921875 C 222.609375 177.578125 222.683594 177.21875 222.683594 176.84375 L 222.683594 172.617188 L 226.902344 172.617188 C 227.273438 172.617188 227.632812 172.546875 227.976562 172.40625 C 228.324219 172.261719 228.628906 172.058594 228.890625 171.792969 C 229.15625 171.53125 229.359375 171.226562 229.5 170.878906 C 229.644531 170.535156 229.714844 170.175781 229.714844 169.800781 C 229.714844 169.429688 229.644531 169.070312 229.5 168.722656 C 229.359375 168.378906 229.15625 168.074219 228.890625 167.808594 C 228.628906 167.546875 228.324219 167.34375 227.976562 167.199219 C 227.632812 167.054688 227.273438 166.984375 226.902344 166.984375 L 222.683594 166.984375 L 222.683594 162.757812 C 222.683594 162.386719 222.609375 162.027344 222.46875 161.679688 C 222.324219 161.335938 222.121094 161.03125 221.859375 160.765625 C 221.59375 160.503906 221.289062 160.300781 220.945312 160.15625 C 220.601562 160.011719 220.242188 159.941406 219.867188 159.941406 C 219.496094 159.941406 219.136719 160.011719 218.792969 160.15625 C 218.449219 160.300781 218.144531 160.503906 217.878906 160.765625 C 217.617188 161.03125 217.414062 161.335938 217.269531 161.679688 C 217.128906 162.027344 217.054688 162.386719 217.054688 162.757812 L 217.054688 166.984375 L 212.835938 166.984375 C 212.464844 166.984375 212.105469 167.054688 211.757812 167.199219 C 211.414062 167.34375 211.109375 167.546875 210.847656 167.808594 C 210.582031 168.074219 210.378906 168.378906 210.238281 168.722656 C 210.09375 169.070312 210.023438 169.429688 210.023438 169.800781 C 210.023438 170.175781 210.09375 170.535156 210.238281 170.878906 C 210.378906 171.226562 210.582031 171.53125 210.847656 171.792969 C 211.109375 172.058594 211.414062 172.261719 211.757812 172.40625 C 212.105469 172.546875 212.464844 172.617188 212.835938 172.617188 Z M 212.835938 172.617188 " fill-opacity="1" fill-rule="nonzero"/></svg>